<svg width="375" height="107" viewBox="0 0 375 107" fill="none" xmlns="http://www.w3.org/2000/svg">
<path d="M154.136 53.4442C144.148 53.2507 134.352 55.5086 124.622 57.8309C92.4008 65.3787 60.2444 72.8619 28.0234 80.4096C65.7864 83.5706 103.485 86.7316 141.248 89.8926C156.52 91.1828 171.922 92.4085 187.066 90.0217C202.21 87.6348 217.225 81.1192 226.955 69.3138C211.36 65.5077 195.766 61.7016 180.171 57.8954C171.6 55.7021 162.965 53.5732 154.136 53.4442Z" fill="url(#paint0_linear)"/>
<path d="M137.575 53.5085C137.575 50.5411 135.127 44.9932 135.127 44.9932C135.127 44.9932 132.678 50.5411 132.678 53.5085C132.678 54.9278 133.58 56.476 134.418 57.1211C134.418 57.2502 134.418 57.4437 134.611 57.6372C134.675 57.7017 134.804 57.7662 134.933 57.7662V58.0888C134.933 58.1533 134.998 58.2823 135.127 58.2823H135.32C135.449 58.2823 135.513 58.2178 135.513 58.0888V57.9598C135.578 57.9598 135.9 57.6372 135.964 57.1211C136.738 56.4115 137.575 54.9278 137.575 53.5085ZM134.74 57.4437C134.675 57.3792 134.675 57.3147 134.611 57.2501C134.675 57.3147 134.74 57.3147 134.804 57.3147V57.5082C134.804 57.5082 134.804 57.5082 134.74 57.4437ZM135.449 57.5727V57.3147C135.513 57.3147 135.578 57.2501 135.642 57.2501C135.578 57.3792 135.513 57.4437 135.449 57.5727Z" fill="#4B6C11"/>
<path d="M156.646 65.7654C156.646 62.7979 154.197 57.25 154.197 57.25C154.197 57.25 151.748 62.7979 151.748 65.7654C151.748 67.1846 152.65 68.7329 153.488 69.378C153.488 69.507 153.488 69.7005 153.681 69.8941C153.746 69.9586 153.875 70.0231 154.004 70.0231V70.3456C154.004 70.4101 154.068 70.5392 154.197 70.5392H154.39C154.519 70.5392 154.583 70.4746 154.583 70.3456V70.2166C154.648 70.2166 154.97 69.8941 155.035 69.378C155.808 68.6684 156.646 67.1846 156.646 65.7654ZM153.81 69.7005C153.746 69.636 153.746 69.5715 153.681 69.507C153.746 69.5715 153.81 69.5715 153.875 69.5715V69.765C153.875 69.765 153.875 69.765 153.81 69.7005ZM154.519 69.8295V69.5715C154.583 69.5715 154.648 69.507 154.712 69.507C154.648 69.636 154.583 69.7005 154.519 69.8295Z" fill="#4B6C11"/>
<path d="M163.478 51.5733C163.478 49.638 161.867 46.0254 161.867 46.0254C161.867 46.0254 160.256 49.638 160.256 51.5733C160.256 52.5409 160.836 53.5086 161.351 53.8957C161.351 53.9602 161.351 54.1537 161.48 54.2182C161.545 54.2827 161.609 54.2827 161.674 54.2827V54.4763C161.674 54.5408 161.738 54.6053 161.802 54.6053H161.931C161.996 54.6053 162.06 54.5408 162.06 54.4763V54.4117C162.06 54.4117 162.318 54.2182 162.382 53.8957C162.962 53.5086 163.478 52.5409 163.478 51.5733ZM161.674 54.1537C161.609 54.0892 161.609 54.0892 161.609 54.0247C161.674 54.0247 161.738 54.0892 161.738 54.0892V54.2182C161.738 54.2182 161.738 54.2182 161.674 54.1537ZM162.125 54.2827V54.0892C162.189 54.0892 162.189 54.0892 162.254 54.0247C162.189 54.0892 162.189 54.2182 162.125 54.2827Z" fill="#4B6C11"/>
<path d="M176.625 91.0537C175.788 90.1506 174.628 88.4088 172.308 87.7637C150.14 81.8288 136.285 63.8303 160.45 53.8312C158.388 53.5732 156.326 53.4441 154.2 53.3796C152.846 53.3796 151.429 53.3796 150.075 53.4442C127.392 64.2819 119.079 80.7321 147.24 90.2796C156.971 91.0537 166.83 91.6343 176.625 91.0537Z" fill="url(#paint1_linear)"/>
<path d="M412.999 3.90005C406.169 -1.58334 395.085 -1.32529 388.769 4.93222C385.612 8.09323 383.614 12.4799 380.005 15.1249C374.657 18.9955 367.31 18.0924 360.866 16.7376C354.422 15.3829 347.398 13.7702 341.469 16.6086C333.8 20.2212 330.514 30.0268 322.781 33.4458C314.919 36.9939 305.768 32.7362 297.262 33.7684C286.629 35.0586 278.638 42.9934 268.585 46.6705C263.817 48.4123 259.306 47.3156 254.279 48.0897C234.818 51.1862 216.001 62.411 198.021 70.6039C264.268 59.5081 330.578 48.3478 396.889 37.252C402.044 36.4133 407.393 35.4457 411.711 32.4782C412.162 32.1556 412.613 31.8331 412.999 31.446V3.90005Z" fill="url(#paint2_linear)"/>
<path d="M413.001 29.5107C413.001 29.5107 255.762 36.5424 81.125 106.214H413.001V29.5107Z" fill="url(#paint3_linear)"/>
<path d="M81.125 106.278H86.8603C259.178 38.6712 413.001 31.7686 413.001 31.7686V29.5107C413.001 29.5107 255.762 36.5424 81.125 106.278Z" fill="#F9DA3E"/>
<g opacity="0.15">
<path d="M270.518 49.7671C264.525 50.9928 258.403 52.3475 252.152 53.7667C268.714 70.6685 283.858 88.2798 297.197 106.343H323.876C307.959 86.8606 290.044 67.83 270.518 49.7671Z" fill="white"/>
<path d="M294.938 44.9286C318.523 64.4108 340.433 85.1187 359.959 106.278H386.638C364.277 83.9575 339.338 62.1529 312.723 41.7031C307.053 42.7353 301.059 43.7675 294.938 44.9286Z" fill="white"/>
<path d="M169.277 75.5068L176.817 106.278H198.341C193.121 94.7309 187.063 83.3771 180.361 72.2168C176.624 73.3135 172.951 74.4102 169.277 75.5068Z" fill="white"/>
<path d="M207.363 64.6689C217.416 78.1516 226.502 92.0859 234.364 106.278H261.043C250.926 90.4086 239.391 74.7971 226.696 59.7661C220.316 61.3144 213.872 62.9271 207.363 64.6689Z" fill="white"/>
<path d="M336.697 37.8972C363.698 56.7988 389.411 76.8615 412.997 97.5694V76.9905C394.244 62.6692 374.589 48.735 354.29 35.4458C348.748 36.1554 342.884 36.9941 336.697 37.8972Z" fill="white"/>
</g>
<path d="M58.8895 58.4114C55.4741 58.1533 52.4453 59.8951 49.2877 61.0563C46.1944 62.2175 41.7479 62.411 40.008 60.0241C38.8481 58.4114 39.428 56.218 38.2036 54.6053C36.7215 52.67 33.3061 52.5409 30.7284 53.3151C28.1507 54.0892 25.9597 55.6374 23.382 56.4761C20.8043 57.3147 17.3889 57.3147 15.7779 55.5084C13.0069 52.4119 17.84 47.8317 15.7779 44.4126C14.6179 42.4128 11.3958 41.7032 8.75372 42.2193C6.1116 42.7353 3.98502 44.2836 2.11621 45.8964C-1.36366 48.9283 -4.32798 52.4764 -8.77447 54.4762C-13.221 56.4761 -19.9229 56.0245 -22.1139 52.3474C-23.3383 50.3476 -23.0806 47.6381 -25.2071 46.2189C-27.2048 44.8642 -30.2336 45.4448 -32.5535 46.3479C-34.1001 46.993 -35.5823 47.7672 -37 48.6703V85.6993C-33.1979 85.9574 -29.2025 85.7638 -25.336 85.4413C13.6513 82.5383 52.4453 78.2806 90.9815 72.7327C82.2174 71.8296 73.9044 68.475 67.6536 63.4432C65.2048 61.2498 62.5627 58.6694 58.8895 58.4114Z" fill="url(#paint4_linear)"/>
<path d="M-36.4825 65.2496C-36.4825 65.2496 102.39 56.6052 295.715 106.278H-36.8047L-36.4825 65.2496Z" fill="url(#paint5_linear)"/>
<path opacity="0.3" d="M-36.4824 67.7011C-36.4824 67.7011 97.75 59.3147 285.985 106.278H295.715C102.39 56.5408 -36.4824 65.2497 -36.4824 65.2497V67.7011Z" fill="white"/>
<g opacity="0.1">
<path d="M8.8182 64.8628C-7.48559 70.4107 -22.6939 76.7327 -36.6133 83.6353L-36.8066 106.279H-14.252C0.956287 91.2476 22.8665 77.6359 49.8032 66.6691C34.2083 65.6369 20.4822 65.1208 8.8182 64.8628Z" fill="white"/>
<path d="M75.5146 68.5396C53.2821 79.1193 35.9473 92.0859 24.8633 106.278H71.7125C78.1567 93.3761 90.0785 81.5062 106.447 71.5715C95.6205 70.3458 85.3098 69.3782 75.5146 68.5396Z" fill="white"/>
<path d="M102.58 106.278H139.956C140.987 95.892 145.692 86.1509 153.682 77.6355C144.661 76.2808 135.832 75.1196 127.326 74.0229C114.824 83.377 106.382 94.4083 102.58 106.278Z" fill="white"/>
<path d="M172.174 80.4741C166.89 88.2799 164.441 97.0533 164.893 106.278H195.438C193.634 98.6016 193.956 91.3119 196.211 84.5383C188.027 83.0545 180.036 81.6998 172.174 80.4741Z" fill="white"/>
<path d="M236.617 92.4736C228.819 90.7963 221.086 89.2481 213.547 87.8289C212.902 93.6348 213.74 99.8278 215.996 106.343H241.45C239.001 101.505 237.39 96.8603 236.617 92.4736Z" fill="white"/>
</g>
<defs>
<linearGradient id="paint0_linear" x1="143.872" y1="76.3453" x2="139.999" y2="55.4398" gradientUnits="userSpaceOnUse">
<stop stop-color="#7DAD2A"/>
<stop offset="1" stop-color="#9CCA4E"/>
</linearGradient>
<linearGradient id="paint1_linear" x1="164.818" y1="67.2792" x2="139.441" y2="95.2069" gradientUnits="userSpaceOnUse">
<stop stop-color="#FBE673"/>
<stop offset="1" stop-color="#CEBE5F"/>
</linearGradient>
<linearGradient id="paint2_linear" x1="315.111" y1="41.5582" x2="312.785" y2="30.8667" gradientUnits="userSpaceOnUse">
<stop stop-color="#7DAD2A"/>
<stop offset="1" stop-color="#9CCA4E"/>
</linearGradient>
<linearGradient id="paint3_linear" x1="272.234" y1="44.5245" x2="316.19" y2="100.885" gradientUnits="userSpaceOnUse">
<stop stop-color="#FFBF47"/>
<stop offset="1" stop-color="#F0A61A"/>
</linearGradient>
<linearGradient id="paint4_linear" x1="28.9925" y1="62.3225" x2="31.8701" y2="50.4356" gradientUnits="userSpaceOnUse">
<stop stop-color="#7DAD2A"/>
<stop offset="1" stop-color="#9CCA4E"/>
</linearGradient>
<linearGradient id="paint5_linear" x1="96.95" y1="108.705" x2="101.122" y2="77.3265" gradientUnits="userSpaceOnUse">
<stop stop-color="#7DAD2A"/>
<stop offset="1" stop-color="#9CCA4E"/>
</linearGradient>
</defs>
</svg>
