<svg viewBox="0 0 16 16" fill="none" xmlns="http://www.w3.org/2000/svg">
  <path d="M13.6809 11H6.08263C4.88773 11 3.87667 10.16 3.6622 9.01999L2.19156 0.799988H0.200073" stroke="#9AA1B8"/>
  <path d="M2.65112 3.19998H14.6001L13.8647 6.67998C13.589 7.99998 12.4247 8.50998 11.0767 8.59998H3.72346" stroke="#9AA1B8" stroke-linejoin="round"/>
  <path fill-rule="evenodd" clip-rule="evenodd" d="M5.00017 15.2C5.66291 15.2 6.20017 14.6627 6.20017 14C6.20017 13.3372 5.66291 12.8 5.00017 12.8C4.33743 12.8 3.80017 13.3372 3.80017 14C3.80017 14.6627 4.33743 15.2 5.00017 15.2Z" stroke="#9AA1B8"/>
  <path fill-rule="evenodd" clip-rule="evenodd" d="M12.2001 15.2C12.8629 15.2 13.4001 14.6627 13.4001 14C13.4001 13.3372 12.8629 12.8 12.2001 12.8C11.5374 12.8 11.0001 13.3372 11.0001 14C11.0001 14.6627 11.5374 15.2 12.2001 15.2Z" stroke="#9AA1B8"/>
</svg>
