<?xml version="1.0" encoding="UTF-8"?>
<svg width="16px" height="18px" viewBox="0 0 16 18" version="1.1" xmlns="http://www.w3.org/2000/svg" xmlns:xlink="http://www.w3.org/1999/xlink">
    <g id="Web-v2" stroke="none" stroke-width="1" fill="none" fill-rule="evenodd">
        <g id="Account-settings" transform="translate(-1562.000000, -247.000000)" fill="#9AA1B8" fill-rule="nonzero">
            <g id="menu" transform="translate(1530.000000, 99.000000)">
                <path d="M35.4743437,151.402353 C33.3168713,152.884752 32,155.331995 32,158 C32,162.418278 35.581722,166 40,166 C44.418278,166 48,162.418278 48,158 C48,155.377651 46.7280197,152.967064 44.6313703,151.476247 C44.1812693,151.156204 43.5569443,151.261637 43.2369012,151.711738 C42.9168582,152.161839 43.022291,152.786164 43.472392,153.106207 C45.0468854,154.225746 46,156.032037 46,158 C46,161.313708 43.3137085,164 40,164 C36.6862915,164 34,161.313708 34,158 C34,155.99784 34.9868358,154.163927 36.6069537,153.050744 C37.0621444,152.737982 37.1776061,152.115434 36.8648444,151.660243 C36.5520828,151.205052 35.9295344,151.089591 35.4743437,151.402353 Z M39,148.995398 C39,148.445655 39.4438648,148 40,148 C40.5522847,148 41,148.449106 41,148.995398 L41,157.004602 C41,157.554345 40.5561352,158 40,158 C39.4477153,158 39,157.550894 39,157.004602 L39,148.995398 Z" id="Logout"></path>
            </g>
        </g>
    </g>
</svg>