<svg viewBox="0 0 14 14" fill="none" xmlns="http://www.w3.org/2000/svg">
  <path fill-rule="evenodd" clip-rule="evenodd" d="M12.0928 9.70263V10.7334H1.8667V9.70263C1.8667 9.04524 2.13453 8.43655 2.57279 7.97394L3.57105 6.97568C4.03366 6.51307 4.27713 5.90437 4.27713 5.24698V4.07829C4.27713 2.59307 5.47018 1.40002 6.9554 1.40002C8.44061 1.40002 9.63366 2.59307 9.63366 4.07829V5.27133C9.63366 5.92872 9.90148 6.53742 10.3397 7.00002L11.338 7.99829C11.825 8.43655 12.0928 9.06959 12.0928 9.70263Z" stroke="#9AA1B8"/>
  <path d="M5.51892 10.6522V11.1391C5.51892 11.9426 6.17631 12.6 6.97979 12.6V12.6C7.78327 12.6 8.44066 11.9426 8.44066 11.1391V10.6522" stroke="#9AA1B8"/>
</svg>
