<?xml version="1.0" encoding="UTF-8"?>
<svg width="18px" height="18px" viewBox="0 0 18 18" version="1.1" xmlns="http://www.w3.org/2000/svg" xmlns:xlink="http://www.w3.org/1999/xlink">
    <g id="Web-v2" stroke="none" stroke-width="1" fill="none" fill-rule="evenodd">
        <g id="Account-settings" transform="translate(-1561.000000, -147.000000)" fill="#9AA1B8" fill-rule="nonzero">
            <g id="menu" transform="translate(1530.000000, 99.000000)">
                <path d="M48.0029698,48 C48.5536144,48 49,48.4472569 49,48.9970301 L49,55.0029698 C49,55.5536144 48.5527431,56 48.0029698,56 L41.9970302,56 C41.4463856,56 41,55.5527431 41,55.0029698 L41,48.9970301 C41,48.4463856 41.4472569,48 41.9970302,48 L48.0029698,48 Z M47,50 L43,50 L43,54 L47,54 L47,50 Z M38.0029698,48 C38.5536144,48 39,48.4472569 39,48.9970301 L39,55.0029698 C39,55.5536144 38.5527431,56 38.0029698,56 L31.9970301,56 C31.4463856,56 31,55.5527431 31,55.0029698 L31,48.9970301 C31,48.4463856 31.4472569,48 31.9970301,48 L38.0029698,48 Z M37,50 L33,50 L33,54 L37,54 L37,50 Z M31,58.9970302 C31,58.4463856 31.4472569,58 31.9970301,58 L38.0029698,58 C38.5536144,58 39,58.4472569 39,58.9970302 L39,65.0029698 C39,65.5536144 38.5527431,66 38.0029698,66 L31.9970301,66 C31.4463856,66 31,65.5527431 31,65.0029698 L31,58.9970302 Z M33,60 L33,64 L37,64 L37,60 L33,60 Z M41,58.9970302 C41,58.4463856 41.4472569,58 41.9970302,58 L48.0029698,58 C48.5536144,58 49,58.4472569 49,58.9970302 L49,65.0029698 C49,65.5536144 48.5527431,66 48.0029698,66 L41.9970302,66 C41.4463856,66 41,65.5527431 41,65.0029698 L41,58.9970302 Z M43,60 L43,64 L47,64 L47,60 L43,60 Z" id="Overview"></path>
            </g>
        </g>
    </g>
</svg>