<?xml version="1.0" encoding="UTF-8"?>
<svg width="19px" height="20px" viewBox="0 0 19 20" version="1.1" xmlns="http://www.w3.org/2000/svg" xmlns:xlink="http://www.w3.org/1999/xlink">
    <g id="Web-v2" stroke="none" stroke-width="1" fill="none" fill-rule="evenodd">
        <g id="Account-settings" transform="translate(-1561.000000, -197.000000)" fill="#9AA1B8" fill-rule="nonzero">
            <g id="menu" transform="translate(1530.000000, 99.000000)">
                <path d="M43.1956754,99.7935034 C43.0584069,99.4402987 42.9499232,99.1852908 42.8844805,99.0424094 C42.6372354,98.4467057 41.9608001,98 41.2827569,98 L39.4209667,98 C38.7457664,98 38.0722172,98.4457488 37.8079542,99.0681201 C37.7537766,99.1855128 37.6453292,99.4405018 37.5081005,99.7936719 C37.282356,100.374645 36.9867255,101.295742 36.9867255,101.295742 L36.2527357,101.732077 C36.2527357,101.732077 35.1603406,101.510028 34.6672478,101.434016 C34.2924961,101.376247 34.017233,101.342668 33.8606702,101.327893 C33.2211531,101.244161 32.4960769,101.606618 32.1570553,102.193821 L31.2261602,103.806179 C30.8885601,104.390919 30.9378152,105.197104 31.3446731,105.737149 C31.4192964,105.84283 31.5859868,106.064355 31.8233496,106.359926 C32.2138192,106.846148 32.863896,107.572028 32.863896,107.572028 C32.863896,107.572028 32.8518618,107.856858 32.8518618,108 C32.8518618,108.303041 32.8624754,108.428974 32.8624754,108.428974 C32.8624754,108.428974 32.1325767,109.255017 31.8233496,109.640074 C31.5859868,109.935645 31.4192964,110.15717 31.3282291,110.285323 C30.9358551,110.797332 30.8871069,111.606564 31.2261602,112.193821 L32.1570553,113.806179 C32.4946227,114.390863 33.2173151,114.751356 33.8883757,114.669103 C34.017233,114.657332 34.2924961,114.623753 34.6672478,114.565984 C35.2837187,114.470953 36.2308269,114.267215 36.2308269,114.267215 L36.9760166,114.692113 C36.9760166,114.692113 37.3282795,115.743543 37.5081005,116.206328 C37.6453292,116.559498 37.7537766,116.814487 37.8191929,116.957356 C38.0664193,117.553167 38.74286,118 39.4209667,118 L41.2827569,118 C41.9578917,118 42.6314342,117.554377 42.8957312,116.932095 C42.9499232,116.814709 43.0584069,116.559701 43.1956754,116.206497 C43.4214821,115.625475 43.725549,114.699952 43.725549,114.699952 L44.4564909,114.268966 C44.4564909,114.268966 45.5449043,114.490063 46.0363558,114.565854 C46.2537833,114.599386 46.4487787,114.626201 46.6189437,114.646975 C46.6796277,114.654384 46.7331891,114.660533 46.7793275,114.665505 C46.8310899,114.670893 46.8310899,114.670893 46.8364289,114.671417 C47.4824261,114.755835 48.2076149,114.393436 48.5466683,113.806179 L49.4775634,112.193821 C49.8151308,111.609137 49.7659809,110.803021 49.3592172,110.262992 C49.2846075,110.157301 49.117919,109.935735 48.8805461,109.640113 C48.4900655,109.153812 47.8393438,108.436469 47.8393438,108.436469 C47.8393438,108.436469 47.8518618,108.145994 47.8518618,108 C47.8518618,107.697045 47.8428522,107.569516 47.8428522,107.569516 C47.8428522,107.569516 48.5717217,106.744494 48.8805461,106.359887 C49.117919,106.064265 49.2846075,105.842699 49.3756722,105.714517 C49.7679441,105.202544 49.816585,104.393382 49.4775634,103.806179 L48.5466683,102.193821 C48.2090681,101.609081 47.4862638,101.248644 46.8151429,101.330971 C46.6862865,101.342758 46.4110578,101.376359 46.0363558,101.434146 C45.4199578,101.529207 44.468418,101.729837 44.468418,101.729837 L43.7255487,101.296295 C43.7255487,101.296295 43.4214821,100.374525 43.1956754,99.7935034 Z M42.0766098,102.75439 L42.5079947,102.93843 C42.9156494,103.112346 43.3006618,103.335275 43.654907,103.601814 L44.0302394,103.884219 L44.4872345,103.775672 C45.151038,103.618003 45.7756586,103.497994 46.341192,103.410778 C46.5374405,103.380512 46.7116378,103.356558 46.861311,103.338285 C46.948076,103.327692 47.6963676,104.623684 47.6438285,104.69352 C47.5531929,104.813995 47.4453742,104.952868 47.3210631,105.107683 C46.9628291,105.553825 46.5466285,106.034752 46.0781849,106.530797 L45.7565358,106.871398 L45.8123532,107.336534 C45.8386106,107.555342 45.8518618,107.776734 45.8518618,108 C45.8518618,108.223266 45.8386106,108.444658 45.8123532,108.663466 L45.7565358,109.128602 L46.0781849,109.469203 C46.5466285,109.965248 46.9628291,110.446175 47.3210631,110.892317 C47.4453742,111.047132 47.5531929,111.186005 47.6438285,111.30648 C47.6963676,111.376316 46.9125703,112.667973 46.861311,112.661715 C46.7116378,112.643442 46.5374405,112.619488 46.341192,112.589222 C45.7756586,112.502006 45.151038,112.381997 44.4872345,112.224328 L44.0302394,112.115781 L43.654907,112.398186 C43.3006618,112.664725 42.9156494,112.887654 42.5079947,113.06157 L42.0766098,113.24561 L41.9422902,113.694968 C41.7469791,114.348369 41.5386649,114.948976 41.3315076,115.482012 C41.2596221,115.66698 41.1932968,115.829704 41.1343112,115.968358 C41.1001192,116.048732 39.6036572,116.0487 39.5694711,115.96832 C39.510498,115.829658 39.4441865,115.666931 39.3723152,115.481964 C39.1652013,114.948938 38.9569237,114.348372 38.7616364,113.695053 L38.6273105,113.245677 L38.1959008,113.061643 C37.7882401,112.887741 37.4032202,112.664825 37.0489661,112.398299 L36.67364,112.115918 L36.2166644,112.224461 C35.5527775,112.382151 34.9281028,112.502148 34.3625397,112.589332 C34.1662831,112.619586 33.9920819,112.643527 33.8424085,112.661785 C33.7556465,112.672369 33.0074098,111.376346 33.0599579,111.306512 C33.1506058,111.186044 33.2584343,111.047182 33.3827514,110.892379 C33.740999,110.446279 34.157182,109.965405 34.6255658,109.469422 L34.9472282,109.128806 L34.8913927,108.663652 C34.8651205,108.444783 34.8518618,108.223329 34.8518618,108 C34.8518618,107.776671 34.8651205,107.555217 34.8913927,107.336348 L34.9472282,106.871194 L34.6255658,106.530578 C34.157182,106.034595 33.740999,105.553721 33.3827514,105.107621 C33.2584343,104.952818 33.1506058,104.813956 33.0599579,104.693488 C33.0074098,104.623654 33.7556465,103.327631 33.8424085,103.338215 C33.9920819,103.356473 34.1662831,103.380414 34.3625397,103.410668 C34.9281028,103.497852 35.5527775,103.617849 36.2166644,103.775539 L36.67364,103.884082 L37.0489661,103.601701 C37.4032202,103.335175 37.7882401,103.112259 38.1959008,102.938357 L38.6273105,102.754323 L38.7616364,102.304947 C38.9569237,101.651628 39.1652013,101.051062 39.3723152,100.518036 C39.4441865,100.333069 39.510498,100.170342 39.5694711,100.03168 C39.6036572,99.9512998 41.1001192,99.9512681 41.1343112,100.031642 C41.1932968,100.170296 41.2596221,100.33302 41.3315076,100.517988 C41.5386649,101.051024 41.7469791,101.651631 41.9422902,102.305032 L42.0766098,102.75439 Z M40.3518618,111 C38.6950075,111 37.3518618,109.656854 37.3518618,108 C37.3518618,106.343146 38.6950075,105 40.3518618,105 C42.008716,105 43.3518618,106.343146 43.3518618,108 C43.3518618,109.656854 42.008716,111 40.3518618,111 Z M40.3518618,109 C40.9041465,109 41.3518618,108.552285 41.3518618,108 C41.3518618,107.447715 40.9041465,107 40.3518618,107 C39.799577,107 39.3518618,107.447715 39.3518618,108 C39.3518618,108.552285 39.799577,109 40.3518618,109 Z" id="Settings"></path>
            </g>
        </g>
    </g>
</svg>