<svg width="58" height="58" viewBox="0 0 58 58" fill="none" xmlns="http://www.w3.org/2000/svg">
<rect width="58" height="58" rx="2" fill="#F5F7FA"/>
<path d="M40.7945 17.2007C40.595 17.001 40.288 16.9447 40.0321 17.0573L17.4156 26.9754C17.1751 27.0829 17.0165 27.3133 17.0012 27.5745C16.9858 27.8356 17.124 28.0814 17.3491 28.2094L25.2342 32.6846L29.9161 40.6569C30.0389 40.8669 30.2692 41 30.5097 41C30.525 41 30.5352 41 30.5506 41C30.8116 40.9846 31.0367 40.8259 31.1442 40.5853L40.9429 17.9636C41.0555 17.7025 40.9992 17.4004 40.7945 17.2007ZM37.1974 19.8069L25.6231 31.3123L19.2321 27.6871L37.1974 19.8069ZM30.4176 38.7829L26.6055 32.2852L38.2463 20.7132L30.4176 38.7829Z" fill="#9AA1B8"/>
</svg>
