<?xml version="1.0" encoding="UTF-8"?>
<svg width="30" height="30" viewBox="0 0 30 30" fill="none" xmlns="http://www.w3.org/2000/svg">
    <circle cx="15" cy="15" r="15" fill="#F5F7FA"/>
    <circle cx="15" cy="15" r="15" fill="#F5F7FA"/>
    <path d="M12.334 15C12.334 13.5273 13.5276 12.3331 15.0003 12.3331C16.4731 12.3331 17.6673 13.5273 17.6673 15C17.6673 16.4727 16.4731 17.6669 15.0003 17.6669C13.5276 17.6669 12.334 16.4727 12.334 15ZM10.8922 15C10.8922 17.2688 12.7314 19.1079 15.0003 19.1079C17.2692 19.1079 19.1084 17.2688 19.1084 15C19.1084 12.7312 17.2692 10.8921 15.0003 10.8921C12.7314 10.8921 10.8922 12.7312 10.8922 15ZM18.311 10.7292C18.311 11.2591 18.7407 11.6895 19.2713 11.6895C19.8012 11.6895 20.2316 11.2591 20.2316 10.7292C20.2316 10.1994 19.8018 9.76963 19.2713 9.76963C18.7407 9.76963 18.311 10.1994 18.311 10.7292ZM11.7679 21.5118C10.9879 21.4763 10.564 21.3464 10.2822 21.2365C9.90868 21.0911 9.64243 20.9179 9.36197 20.6381C9.08215 20.3583 8.90832 20.0921 8.76356 19.7186C8.6537 19.4368 8.52381 19.0129 8.48827 18.233C8.44949 17.3897 8.44174 17.1363 8.44174 15C8.44174 12.8637 8.45014 12.611 8.48827 11.767C8.52381 10.9871 8.65435 10.5638 8.76356 10.2814C8.90896 9.90792 9.08215 9.64168 9.36197 9.36123C9.64179 9.08142 9.90803 8.90759 10.2822 8.76284C10.564 8.65299 10.9879 8.5231 11.7679 8.48756C12.6112 8.44879 12.8645 8.44103 15.0003 8.44103C17.1368 8.44103 17.3894 8.44943 18.2334 8.48756C19.0134 8.5231 19.4367 8.65363 19.7191 8.76284C20.0926 8.90759 20.3589 9.08142 20.6393 9.36123C20.9191 9.64103 21.0923 9.90792 21.2377 10.2814C21.3476 10.5632 21.4775 10.9871 21.513 11.767C21.5518 12.611 21.5596 12.8637 21.5596 15C21.5596 17.1357 21.5518 17.389 21.513 18.233C21.4775 19.0129 21.3469 19.4368 21.2377 19.7186C21.0923 20.0921 20.9191 20.3583 20.6393 20.6381C20.3595 20.9179 20.0926 21.0911 19.7191 21.2365C19.4373 21.3464 19.0134 21.4763 18.2334 21.5118C17.3901 21.5506 17.1368 21.5583 15.0003 21.5583C12.8645 21.5583 12.6112 21.5506 11.7679 21.5118ZM11.702 7.04847C10.8502 7.08724 10.2686 7.22229 9.76005 7.42003C9.23402 7.62423 8.78812 7.89822 8.34287 8.34281C7.89826 8.7874 7.62426 9.23328 7.42005 9.75994C7.2223 10.2685 7.08724 10.8501 7.04847 11.7018C7.00905 12.5548 7 12.8275 7 15C7 17.1725 7.00905 17.4452 7.04847 18.2982C7.08724 19.1499 7.2223 19.7315 7.42005 20.2401C7.62426 20.7661 7.89761 21.2126 8.34287 21.6572C8.78747 22.1018 9.23337 22.3751 9.76005 22.58C10.2693 22.7777 10.8502 22.9128 11.702 22.9515C12.5556 22.9903 12.8277 23 15.0003 23C17.1736 23 17.4457 22.991 18.2987 22.9515C19.1504 22.9128 19.732 22.7777 20.2406 22.58C20.7666 22.3751 21.2125 22.1018 21.6578 21.6572C22.1024 21.2126 22.3757 20.7661 22.5806 20.2401C22.7783 19.7315 22.9141 19.1499 22.9522 18.2982C22.991 17.4446 23 17.1725 23 15C23 12.8275 22.991 12.5548 22.9522 11.7018C22.9134 10.8501 22.7783 10.2685 22.5806 9.75994C22.3757 9.23393 22.1024 8.78805 21.6578 8.34281C21.2132 7.89822 20.7666 7.62423 20.2412 7.42003C19.732 7.22229 19.1504 7.08659 18.2993 7.04847C17.4463 7.00969 17.1736 7 15.001 7C12.8277 7 12.5556 7.00905 11.702 7.04847Z" fill="#9AA1B8"/>
</svg>
