<?xml version="1.0" encoding="UTF-8"?>
<svg width="30" height="30" viewBox="0 0 30 30" fill="none" xmlns="http://www.w3.org/2000/svg">
    <circle cx="15" cy="15" r="15" fill="#F5F7FA"/>
    <path d="M10.6352 12.199H7.19775V22.9999H10.6352V12.199Z" fill="#9AA1B8"/>
    <path d="M21.9169 13.1855C21.1948 12.3608 20.2398 11.9484 19.0523 11.9484C18.6149 11.9484 18.2172 12.0047 17.8595 12.1174C17.5019 12.23 17.1998 12.388 16.9532 12.5915C16.7068 12.7949 16.5105 12.9838 16.3648 13.1581C16.2262 13.3237 16.0907 13.5166 15.9585 13.7347V12.1989H12.5312L12.5418 12.7221C12.5488 13.071 12.5523 14.1463 12.5523 15.9482C12.5523 17.7503 12.5453 20.1008 12.5314 23H15.9585V16.9726C15.9585 16.6021 15.9965 16.3079 16.073 16.0898C16.2189 15.719 16.4392 15.4086 16.7345 15.158C17.0298 14.9071 17.396 14.7818 17.8336 14.7818C18.4307 14.7818 18.8701 14.9979 19.1514 15.4303C19.4326 15.8626 19.5732 16.4602 19.5732 17.2232V22.9996H23.0003V16.8093C23 15.2179 22.6392 14.01 21.9169 13.1855Z" fill="#9AA1B8"/>
    <path d="M8.93747 7C8.36115 7 7.89418 7.17633 7.53644 7.52865C7.17874 7.88104 7 8.32594 7 8.86375C7 9.39404 7.1736 9.8374 7.52082 10.1933C7.86794 10.5493 8.32634 10.7274 8.89577 10.7274H8.9166C9.5 10.7274 9.97055 10.5495 10.3281 10.1933C10.6857 9.8374 10.861 9.39419 10.8541 8.86375C10.8472 8.32598 10.67 7.88104 10.3229 7.52865C9.9758 7.17618 9.51382 7 8.93747 7Z" fill="#9AA1B8"/>
</svg>
