<?xml version="1.0" encoding="UTF-8"?>
<svg width="30" height="30" viewBox="0 0 30 30" fill="none" xmlns="http://www.w3.org/2000/svg">
    <circle cx="15" cy="15" r="15" fill="#F5F7FA"/>
    <path d="M23 10.5377C22.4111 10.7986 21.7792 10.9756 21.1153 11.0546C21.7932 10.6487 22.3121 10.0048 22.558 9.23995C21.9222 9.61587 21.2203 9.88884 20.4724 10.0368C19.8735 9.39793 19.0217 9 18.0769 9C16.2642 9 14.7945 10.4697 14.7945 12.2814C14.7945 12.5383 14.8235 12.7893 14.8795 13.0293C12.152 12.8923 9.73346 11.5855 8.11477 9.59987C7.83182 10.0838 7.67085 10.6477 7.67085 11.2496C7.67085 12.3884 8.25075 13.3932 9.13059 13.981C8.59268 13.9631 8.08677 13.8151 7.64387 13.5691V13.6101C7.64387 15.1998 8.77566 16.5266 10.2764 16.8285C10.0014 16.9025 9.71148 16.9435 9.41153 16.9435C9.19958 16.9435 8.99461 16.9225 8.79365 16.8825C9.21156 18.1873 10.4233 19.1361 11.8591 19.1621C10.7363 20.0419 9.32055 20.5648 7.78285 20.5648C7.51791 20.5648 7.25694 20.5488 7 20.5198C8.45273 21.4527 10.1774 21.9966 12.0311 21.9966C18.0689 21.9966 21.3693 16.9955 21.3693 12.6583L21.3583 12.2334C22.0032 11.7735 22.561 11.1956 23 10.5377Z" fill="#9AA1B8"/>
</svg>
